<mxfile host="app.diagrams.net" modified="2024-05-14T01:32:48.199Z" agent="Mozilla/5.0 (Windows NT 10.0; Win64; x64) AppleWebKit/537.36 (KHTML, like Gecko) Chrome/124.0.0.0 Safari/537.36 Edg/124.0.0.0" etag="o-62thRyQTkUqnMgQvuf" version="24.4.0" type="github">
  <diagram name="Page-1" id="Y7u44x_xStj8HJw0XsOV">
    <mxGraphModel dx="1156" dy="892" grid="1" gridSize="10" guides="1" tooltips="1" connect="1" arrows="1" fold="1" page="1" pageScale="1" pageWidth="850" pageHeight="1100" math="0" shadow="0">
      <root>
        <mxCell id="0" />
        <mxCell id="1" parent="0" />
        <mxCell id="I8pGivpQMSuWtW9HKUMX-1" value="Data Input" style="whiteSpace=wrap;strokeWidth=2;" vertex="1" parent="1">
          <mxGeometry x="143" y="20" width="91" height="34" as="geometry" />
        </mxCell>
        <mxCell id="I8pGivpQMSuWtW9HKUMX-2" value="Stream Processing System" style="whiteSpace=wrap;strokeWidth=2;" vertex="1" parent="1">
          <mxGeometry x="88" y="123" width="200" height="34" as="geometry" />
        </mxCell>
        <mxCell id="I8pGivpQMSuWtW9HKUMX-3" value="Real-time View" style="whiteSpace=wrap;strokeWidth=2;" vertex="1" parent="1">
          <mxGeometry x="20" y="226" width="125" height="34" as="geometry" />
        </mxCell>
        <mxCell id="I8pGivpQMSuWtW9HKUMX-4" value="Historical Data Processing" style="whiteSpace=wrap;strokeWidth=2;" vertex="1" parent="1">
          <mxGeometry x="194" y="226" width="200" height="34" as="geometry" />
        </mxCell>
        <mxCell id="I8pGivpQMSuWtW9HKUMX-5" value="Data Output" style="whiteSpace=wrap;strokeWidth=2;" vertex="1" parent="1">
          <mxGeometry x="136" y="310" width="103" height="34" as="geometry" />
        </mxCell>
        <mxCell id="I8pGivpQMSuWtW9HKUMX-6" value="All data as stream" style="curved=1;startArrow=none;endArrow=block;exitX=0.49564302884615385;exitY=1;entryX=0.500517578125;entryY=0;rounded=0;" edge="1" parent="1" source="I8pGivpQMSuWtW9HKUMX-1" target="I8pGivpQMSuWtW9HKUMX-2">
          <mxGeometry relative="1" as="geometry">
            <Array as="points" />
          </mxGeometry>
        </mxCell>
        <mxCell id="I8pGivpQMSuWtW9HKUMX-7" value="Real-time Processing" style="curved=1;startArrow=none;endArrow=block;exitX=0.3254339540351941;exitY=1;entryX=0.4961875;entryY=0;rounded=0;" edge="1" parent="1" source="I8pGivpQMSuWtW9HKUMX-2" target="I8pGivpQMSuWtW9HKUMX-3">
          <mxGeometry relative="1" as="geometry">
            <Array as="points">
              <mxPoint x="82" y="192" />
            </Array>
          </mxGeometry>
        </mxCell>
        <mxCell id="I8pGivpQMSuWtW9HKUMX-8" value="Re-processing" style="curved=1;startArrow=none;endArrow=block;exitX=0.6756012022148059;exitY=1;entryX=0.50091796875;entryY=0;rounded=0;" edge="1" parent="1" source="I8pGivpQMSuWtW9HKUMX-2" target="I8pGivpQMSuWtW9HKUMX-4">
          <mxGeometry relative="1" as="geometry">
            <Array as="points">
              <mxPoint x="294" y="192" />
            </Array>
          </mxGeometry>
        </mxCell>
        <mxCell id="I8pGivpQMSuWtW9HKUMX-9" value="" style="curved=1;startArrow=none;endArrow=block;exitX=0.4961875;exitY=1;entryX=0.08899360335760527;entryY=0;rounded=0;" edge="1" parent="1" source="I8pGivpQMSuWtW9HKUMX-3" target="I8pGivpQMSuWtW9HKUMX-5">
          <mxGeometry relative="1" as="geometry">
            <Array as="points">
              <mxPoint x="82" y="285" />
            </Array>
          </mxGeometry>
        </mxCell>
        <mxCell id="I8pGivpQMSuWtW9HKUMX-10" value="" style="curved=1;startArrow=none;endArrow=block;exitX=0.50091796875;exitY=1;entryX=0.9227251466423947;entryY=0;rounded=0;" edge="1" parent="1" source="I8pGivpQMSuWtW9HKUMX-4" target="I8pGivpQMSuWtW9HKUMX-5">
          <mxGeometry relative="1" as="geometry">
            <Array as="points">
              <mxPoint x="294" y="285" />
            </Array>
          </mxGeometry>
        </mxCell>
      </root>
    </mxGraphModel>
  </diagram>
</mxfile>
